<svg  viewBox="0 0 1515 267" fill="none" xmlns="http://www.w3.org/2000/svg">
<g clip-path="url(#clip0_13_184)">
<g clip-path="url(#clip1_13_184)">
<path d="M2.25899 187.991C2.19399 125.593 2.09899 48.297 2.08899 38.547C2.08899 37.994 2.53599 37.554 3.08899 37.554H155.788C156.34 37.554 156.788 37.996 156.788 38.549C156.796 63.215 157.075 248.998 157.096 264.302C157.096 264.855 156.655 265.3 156.102 265.3C146.889 265.3 75.215 265.3 3.32099 265.307C2.76899 265.307 2.32099 264.866 2.32099 264.313C2.32299 253.185 2.29499 222.923 2.25899 187.992V187.991Z" fill="white"/>
<path d="M156.802 71.83C146.057 71.83 20.358 71.88 2.409 71.88V98.621H156.819" fill="#FF5722"/>
<path d="M156.802 126.055C146.057 126.055 20.358 126.105 2.409 126.105V152.846H156.819" fill="#FF5722"/>
<path d="M156.802 180.28C146.057 180.28 20.358 180.33 2.409 180.33V207.071H156.819" fill="#FF5722"/>
<path d="M2.25799 100.621H156.668C159.242 100.621 159.246 96.621 156.668 96.621H2.25799C-0.316011 96.621 -0.320011 100.621 2.25799 100.621Z" fill="#211715"/>
<path d="M2.25799 73.83H156.668C159.242 73.83 159.246 69.83 156.668 69.83H2.25799C-0.316011 69.83 -0.320011 73.83 2.25799 73.83Z" fill="#211715"/>
<path d="M2.408 154.846H156.818C159.392 154.846 159.396 150.846 156.818 150.846H2.408C-0.166002 150.846 -0.170002 154.846 2.408 154.846Z" fill="#211715"/>
<path d="M2.408 128.055H156.818C159.392 128.055 159.396 124.055 156.818 124.055H2.408C-0.166002 124.055 -0.170002 128.055 2.408 128.055Z" fill="#211715"/>
<path d="M2.408 209.071H156.818C159.392 209.071 159.396 205.071 156.818 205.071H2.408C-0.166002 205.071 -0.170002 209.071 2.408 209.071Z" fill="#211715"/>
<path d="M2.408 182.28H156.818C159.392 182.28 159.396 178.28 156.818 178.28H2.408C-0.166002 178.28 -0.170002 182.28 2.408 182.28Z" fill="#211715"/>
<path d="M4.25899 187.991C4.23699 166.781 4.21299 145.572 4.18899 124.362C4.16799 105.824 4.14599 87.286 4.12399 68.748C4.11599 62.295 4.10899 55.842 4.10099 49.389C4.09799 47.236 4.09599 45.084 4.09399 42.931C4.09299 41.673 4.33899 40.12 4.08899 38.884C3.91199 38.008 4.35299 40.039 3.10499 39.552C3.13499 39.564 3.17899 39.544 3.20999 39.552C3.35799 39.59 3.56899 39.552 3.72099 39.552H5.83799C8.51599 39.552 11.195 39.552 13.873 39.552C23.204 39.552 32.535 39.552 41.866 39.552C54.099 39.552 66.332 39.552 78.564 39.552C90.862 39.552 103.159 39.552 115.457 39.552C124.983 39.552 134.508 39.552 144.034 39.552C146.884 39.552 149.734 39.552 152.583 39.552H154.899C155.002 39.552 155.713 39.637 155.783 39.552C155.521 39.873 155.113 38.18 154.788 38.749C154.75 38.815 154.8 38.953 154.788 39.03C154.75 39.267 154.788 39.545 154.788 39.786C154.788 40.349 154.788 40.912 154.789 41.475C154.789 42.853 154.791 44.231 154.793 45.61C154.796 49.276 154.801 52.943 154.805 56.609C154.817 67.05 154.831 77.491 154.844 87.931C154.861 101.035 154.879 114.138 154.898 127.242C154.918 141.295 154.938 155.348 154.958 169.401C154.977 182.69 154.996 195.978 155.016 209.267C155.032 220.078 155.048 230.889 155.064 241.7C155.074 248.32 155.084 254.939 155.093 261.559C155.094 262.322 154.979 263.19 155.096 263.945C155.107 264.013 155.073 264.108 155.096 264.173C155.272 264.674 156.456 263.474 155.936 263.298C155.727 263.227 155.369 263.298 155.147 263.298C154.47 263.298 153.792 263.298 153.115 263.298C148.228 263.298 143.341 263.298 138.454 263.298C120.547 263.298 102.639 263.298 84.732 263.299C60.589 263.299 36.446 263.301 12.303 263.303C10.807 263.303 9.31099 263.303 7.81399 263.303C6.98199 263.303 6.14999 263.303 5.31799 263.303C5.01699 263.303 4.60099 263.247 4.31999 263.303C3.57499 263.16 3.57499 263.442 4.32099 264.149V263.986C4.57099 262.926 4.32099 261.501 4.32099 260.411C4.32099 257.131 4.31799 253.851 4.31599 250.571C4.30999 241.228 4.30199 231.886 4.29299 222.543C4.28199 211.025 4.27099 199.507 4.25899 187.988C4.25599 185.414 0.255993 185.41 0.258993 187.988C0.280993 209.336 0.303993 230.683 0.316993 252.031C0.318993 255.2 0.320993 258.369 0.320993 261.537C0.320993 262.894 0.0339932 264.721 0.786993 265.906C1.59999 267.185 2.93499 267.302 4.31999 267.302C5.98399 267.302 7.64699 267.302 9.31099 267.302C22.095 267.301 34.88 267.3 47.664 267.299C69.801 267.298 91.938 267.297 114.076 267.296C127.089 267.296 140.102 267.296 153.115 267.296C155.031 267.296 157.595 267.714 158.703 265.761C159.256 264.786 159.095 263.46 159.093 262.364C159.089 259.822 159.086 257.28 159.082 254.738C159.069 245.932 159.056 237.127 159.043 228.321C159.025 215.963 159.007 203.606 158.989 191.248C158.969 177.158 158.948 163.068 158.928 148.978C158.908 134.998 158.889 121.018 158.869 107.037C158.852 94.87 158.836 82.704 158.821 70.537C158.81 62.029 158.8 53.521 158.792 45.013C158.791 43.665 158.79 42.316 158.789 40.968C158.788 39.167 159.094 36.99 157.25 35.943C156.086 35.283 154.249 35.549 152.965 35.549C145.937 35.549 138.909 35.549 131.882 35.549C120.468 35.549 109.054 35.549 97.64 35.549C84.859 35.549 72.077 35.549 59.296 35.549C48.035 35.549 36.774 35.549 25.513 35.549C18.791 35.549 12.07 35.549 5.34799 35.549C3.07099 35.549 0.284993 35.356 0.0889932 38.574C-0.117007 41.952 0.0969932 45.411 0.100993 48.794C0.118993 63.887 0.136993 78.979 0.153993 94.072C0.177993 115.018 0.201993 135.963 0.224993 156.909C0.235993 167.268 0.247993 177.627 0.257993 187.986C0.260993 190.56 4.26099 190.564 4.25799 187.986L4.25899 187.991Z" fill="#211715"/>
</g>
<g clip-path="url(#clip2_13_184)">
<path d="M397.207 112.507H169.207C168.655 112.507 168.207 112.955 168.207 113.507V264.3C168.207 264.852 168.661 265.3 169.213 265.3C261.521 265.3 304.897 265.3 397.2 265.3C397.752 265.3 398.206 264.854 398.206 264.302C398.206 214.274 398.206 162.986 398.206 113.504C398.206 112.952 397.759 112.507 397.207 112.507Z" fill="white"/>
<path d="M283.207 169.231C281.008 168.954 279.203 170.861 278.048 172.698C276.893 174.535 275.745 176.665 273.635 177.326C270.67 178.255 268.52 175.941 267.946 172.963C267.34 169.819 266.907 167.391 265.674 164.341C264.752 162.061 263.287 159.33 262.191 157.159C259.252 151.335 257.407 144.745 258.549 138.356C259.691 131.967 264.321 125.91 270.8 124.321C274.136 123.502 277.667 123.896 280.966 124.909C282.43 125.359 283.985 125.359 285.449 124.909C288.747 123.896 292.278 123.503 295.613 124.321C302.092 125.911 306.722 131.967 307.864 138.356C309.006 144.745 307.161 151.336 304.222 157.159C303.126 159.33 301.661 162.061 300.739 164.341C299.506 167.391 299.073 169.819 298.467 172.963C297.893 175.941 295.743 178.254 292.778 177.326C290.668 176.665 289.52 174.535 288.365 172.698C287.21 170.861 285.406 168.954 283.207 169.231Z" fill="white"/>
<path d="M294.128 205.696H275.315C274.763 205.696 274.315 206.144 274.315 206.696V250.675C274.315 251.227 274.763 251.675 275.315 251.675H294.128C294.68 251.675 295.128 251.227 295.128 250.675V206.696C295.128 206.144 294.68 205.696 294.128 205.696Z" fill="white"/>
<path d="M329.128 205.696H310.315C309.763 205.696 309.315 206.144 309.315 206.696V250.675C309.315 251.227 309.763 251.675 310.315 251.675H329.128C329.68 251.675 330.128 251.227 330.128 250.675V206.696C330.128 206.144 329.68 205.696 329.128 205.696Z" fill="white"/>
<path d="M364.128 205.696H345.315C344.763 205.696 344.315 206.144 344.315 206.696V250.675C344.315 251.227 344.763 251.675 345.315 251.675H364.128C364.68 251.675 365.128 251.227 365.128 250.675V206.696C365.128 206.144 364.68 205.696 364.128 205.696Z" fill="white"/>
<path d="M241.237 216.266C241.237 214.797 241.237 213.328 241.237 211.859H168.217V265.299C182.944 265.299 211.565 265.299 241.237 265.299C241.237 248.96 241.237 232.61 241.237 216.266Z" fill="#F44336"/>
<path d="M243.237 265.297V188.904C243.237 186.33 239.237 186.326 239.237 188.904V265.297C239.237 267.871 243.237 267.875 243.237 265.297Z" fill="#211715"/>
<path d="M397.207 110.507H367.301C356.821 110.507 346.341 110.507 335.861 110.507C323.545 110.507 311.228 110.507 298.912 110.507C286.056 110.507 273.201 110.507 260.345 110.507H170.063C169.792 110.507 169.514 110.491 169.243 110.507C167.421 110.616 166.283 111.895 166.207 113.674C166.005 118.408 166.207 123.195 166.207 127.931V158.572C166.207 171.22 166.207 183.867 166.207 196.515C166.207 209.163 166.207 220.618 166.207 232.669C166.207 241.094 166.207 249.518 166.207 257.943V263.677C166.207 264.55 166.262 265.346 166.832 266.102C167.801 267.387 169.259 267.3 170.709 267.3C172.35 267.3 173.991 267.3 175.632 267.3C178.667 267.3 181.703 267.3 184.738 267.3C206.464 267.3 228.19 267.3 249.916 267.3C269.151 267.3 288.385 267.3 307.62 267.3C328.616 267.3 349.612 267.3 370.608 267.3C376.604 267.3 382.6 267.3 388.597 267.3C390.142 267.3 391.687 267.3 393.232 267.3C394.724 267.3 396.609 267.611 398.049 267.178C399.364 266.782 400.104 265.623 400.207 264.302C400.332 262.698 400.207 261.035 400.207 259.425C400.207 246.678 400.207 233.931 400.207 221.183C400.207 195.803 400.207 170.424 400.207 145.044C400.207 139.043 400.207 133.042 400.207 127.041C400.207 123.976 400.207 120.911 400.207 117.846C400.207 115.478 401.032 111.106 397.739 110.578C396.674 110.407 395.587 110.853 395.279 111.975C395.017 112.928 395.603 114.263 396.676 114.435L396.208 113.986C396.208 114.227 396.208 114.468 396.208 114.709C396.208 115.111 396.208 115.513 396.208 115.915C396.208 116.639 396.208 117.363 396.208 118.087C396.208 119.618 396.208 121.149 396.208 122.68C396.208 125.832 396.208 128.985 396.208 132.137C396.208 138.393 396.208 144.649 396.208 150.905C396.208 163.338 396.208 175.772 396.208 188.205C396.208 200.755 396.208 213.304 396.208 225.854C396.208 232.153 396.208 238.453 396.208 244.752C396.208 247.852 396.208 250.951 396.208 254.051C396.208 255.517 396.208 256.982 396.208 258.448C396.208 259.261 396.208 260.075 396.208 260.888C396.208 261.655 396.065 262.571 396.208 263.326V263.813C396.373 263.641 396.537 263.47 396.702 263.298C396.697 263.268 395.314 263.298 395.21 263.298C394.551 263.298 393.892 263.298 393.233 263.298C391.607 263.298 389.982 263.298 388.356 263.298C385.348 263.298 382.341 263.298 379.333 263.298C373.536 263.298 367.739 263.298 361.942 263.298C351.379 263.298 340.817 263.298 330.254 263.298C311.139 263.298 292.025 263.298 272.91 263.298C253.041 263.298 233.171 263.298 213.302 263.298C201.876 263.298 190.45 263.298 179.025 263.298C177.569 263.298 176.112 263.298 174.656 263.298C173.836 263.298 173.016 263.298 172.197 263.298C171.81 263.298 169.877 263.071 169.714 263.298L170.208 264.297V264.294C170.208 264.294 170.207 264.287 170.208 264.284C170.212 264.274 170.205 264.259 170.208 264.248C170.223 264.201 170.2 264.139 170.208 264.09C170.288 263.595 170.208 263.019 170.208 262.518V243.617C170.208 232.697 170.208 221.777 170.208 210.857V173.133C170.208 161.728 170.208 150.323 170.208 138.918V114.589C170.208 114.312 170.311 113.795 170.208 113.531C170.768 114.962 168.435 114.392 169.6 114.508C170.052 114.553 170.533 114.508 170.987 114.508H245.359C257.85 114.508 270.342 114.508 282.833 114.508C295.324 114.508 307.92 114.508 320.464 114.508H397.208C399.782 114.508 399.786 110.508 397.208 110.508L397.207 110.507Z" fill="#211715"/>
<path d="M168.217 213.856H241.237C243.811 213.856 243.815 209.856 241.237 209.856H168.217C165.643 209.856 165.639 213.856 168.217 213.856Z" fill="#211715"/>
<path d="M168.207 190.904H398.207C400.781 190.904 400.785 186.904 398.207 186.904H168.207C165.633 186.904 165.629 190.904 168.207 190.904Z" fill="#211715"/>
<path d="M283.207 167.231C280.223 167.014 277.939 169.21 276.42 171.535C275.491 172.957 273.938 176.335 271.683 175.408C269.684 174.586 269.66 171.208 269.29 169.476C268.664 166.545 267.68 163.773 266.393 161.068C263.766 155.545 260.72 150.298 260.27 144.046C259.888 138.731 261.416 133.417 265.304 129.645C267.105 127.898 269.31 126.673 271.768 126.148C274.934 125.472 277.816 126.247 280.877 126.957C284.197 127.728 287.042 126.215 290.295 125.943C293.068 125.711 295.817 126.125 298.257 127.503C302.577 129.94 305.366 134.642 306.034 139.493C306.888 145.697 304.736 151.775 301.954 157.215C300.413 160.227 298.839 163.246 297.869 166.502C297.417 168.02 297.095 169.57 296.792 171.124C296.547 172.381 296.403 173.764 295.537 174.777C293.607 177.034 291.439 173.849 290.479 172.31C288.864 169.72 286.584 166.986 283.207 167.231C280.655 167.416 280.634 171.419 283.207 171.232C285.95 171.033 287.335 175.126 288.8 176.868C290.692 179.116 293.764 180.272 296.543 178.96C299.402 177.609 300.172 174.59 300.731 171.768C301.357 168.604 302.256 165.608 303.662 162.698C305.188 159.54 306.901 156.494 308.121 153.195C309.307 149.987 310.064 146.595 310.191 143.171C310.416 137.082 308.269 130.939 303.81 126.694C298.899 122.019 292.204 120.998 285.783 122.73C284.92 122.963 284.112 123.246 283.208 123.246C282.304 123.246 281.496 122.962 280.633 122.73C278.876 122.258 277.048 121.956 275.228 121.891C272.067 121.779 268.898 122.489 266.139 124.05C261.149 126.873 257.632 132.222 256.621 137.824C255.352 144.859 257.321 151.893 260.464 158.169C262.165 161.565 263.992 164.859 264.966 168.558C265.788 171.681 265.783 175.429 268.258 177.824C270.733 180.219 274.422 179.905 276.874 177.656C278.087 176.543 278.893 175.077 279.774 173.709C280.566 172.481 281.612 171.117 283.206 171.233C285.774 171.42 285.763 167.419 283.206 167.233L283.207 167.231Z" fill="#211715"/>
<path d="M277.676 136.183C281.269 137.265 285.146 137.265 288.739 136.183C289.74 135.882 290.474 134.768 290.136 133.723C289.809 132.712 288.749 132.003 287.676 132.326C286.904 132.559 286.125 132.727 285.332 132.869C285.094 132.904 285.089 132.906 285.316 132.875C285.194 132.89 285.072 132.904 284.95 132.917C284.767 132.936 284.584 132.952 284.4 132.965C284.003 132.993 283.605 133.007 283.207 133.007C282.809 133.007 282.411 132.993 282.014 132.965C281.831 132.952 281.647 132.936 281.464 132.917C281.342 132.904 281.22 132.89 281.098 132.875C281.295 132.902 281.32 132.905 281.174 132.883C280.351 132.729 279.542 132.568 278.739 132.326C277.737 132.024 276.515 132.687 276.279 133.723C276.033 134.801 276.603 135.86 277.676 136.183Z" fill="#211715"/>
<path d="M276.315 250.675V207.891C276.315 207.583 276.413 207.083 276.315 206.786C276.139 206.252 275.306 207.679 275.343 207.695C275.478 207.753 275.762 207.695 275.906 207.695H291.235C292.035 207.695 292.959 207.824 293.75 207.695C294.198 207.622 294.401 207.974 293.625 207.196C292.611 206.179 293.229 206.59 293.127 206.88C293.018 207.19 293.127 207.75 293.127 208.075V246.149C293.127 247.468 292.97 248.898 293.127 250.21C293.137 250.29 293.08 250.518 293.127 250.584C293.397 250.959 293.871 249.481 294.088 249.675C293.868 249.478 292.544 249.675 292.265 249.675H276.593C276.284 249.675 275.959 249.645 275.652 249.675C274.818 249.756 276.107 249.307 276.242 250.143C276.07 249.076 274.742 248.482 273.782 248.746C272.647 249.058 272.212 250.136 272.385 251.206C272.862 254.163 276.219 253.674 278.395 253.674H287.553C289.686 253.674 291.843 253.769 293.974 253.674C295.734 253.595 297.011 252.466 297.127 250.666C297.145 250.383 297.127 250.092 297.127 249.808V217.875C297.127 214.21 297.285 210.506 297.127 206.844C297.057 205.227 296.074 203.905 294.393 203.73C293.835 203.672 293.272 203.694 292.71 203.694H276.338C275.536 203.694 274.73 203.642 273.988 204.018C272.83 204.604 272.357 205.701 272.314 206.937C272.181 210.72 272.314 214.533 272.314 218.318V250.673C272.314 253.247 276.314 253.251 276.314 250.673L276.315 250.675Z" fill="#211715"/>
<path d="M311.315 250.675V207.891C311.315 207.583 311.413 207.083 311.315 206.786C311.139 206.252 310.306 207.679 310.343 207.695C310.478 207.753 310.762 207.695 310.906 207.695H326.235C327.035 207.695 327.959 207.824 328.75 207.695C329.198 207.622 329.401 207.974 328.625 207.196C327.611 206.179 328.229 206.59 328.127 206.88C328.018 207.19 328.127 207.75 328.127 208.075V246.149C328.127 247.468 327.97 248.898 328.127 250.21C328.137 250.29 328.08 250.518 328.127 250.584C328.397 250.959 328.871 249.481 329.088 249.675C328.868 249.478 327.544 249.675 327.265 249.675H311.593C311.284 249.675 310.959 249.645 310.652 249.675C309.818 249.756 311.107 249.307 311.242 250.143C311.07 249.076 309.742 248.482 308.782 248.746C307.647 249.058 307.212 250.136 307.385 251.206C307.862 254.163 311.219 253.674 313.395 253.674H322.553C324.686 253.674 326.843 253.769 328.974 253.674C330.734 253.595 332.011 252.466 332.127 250.666C332.145 250.383 332.127 250.092 332.127 249.808V217.875C332.127 214.21 332.285 210.506 332.127 206.844C332.057 205.227 331.074 203.905 329.393 203.73C328.835 203.672 328.272 203.694 327.71 203.694H311.338C310.536 203.694 309.73 203.642 308.988 204.018C307.83 204.604 307.357 205.701 307.314 206.937C307.181 210.72 307.314 214.533 307.314 218.318V250.673C307.314 253.247 311.314 253.251 311.314 250.673L311.315 250.675Z" fill="#211715"/>
<path d="M346.315 250.675V207.891C346.315 207.583 346.413 207.083 346.315 206.786C346.139 206.252 345.306 207.679 345.343 207.695C345.478 207.753 345.762 207.695 345.906 207.695H361.235C362.035 207.695 362.959 207.824 363.75 207.695C364.198 207.622 364.401 207.974 363.625 207.196C362.611 206.179 363.229 206.59 363.127 206.88C363.018 207.19 363.127 207.75 363.127 208.075V246.149C363.127 247.468 362.97 248.898 363.127 250.21C363.137 250.29 363.08 250.518 363.127 250.584C363.397 250.959 363.871 249.481 364.088 249.675C363.868 249.478 362.544 249.675 362.265 249.675H346.593C346.284 249.675 345.959 249.645 345.652 249.675C344.818 249.756 346.107 249.307 346.242 250.143C346.07 249.076 344.742 248.482 343.782 248.746C342.647 249.058 342.212 250.136 342.385 251.206C342.862 254.163 346.219 253.674 348.395 253.674H357.553C359.686 253.674 361.843 253.769 363.974 253.674C365.734 253.595 367.011 252.466 367.127 250.666C367.145 250.383 367.127 250.092 367.127 249.808V217.875C367.127 214.21 367.285 210.506 367.127 206.844C367.057 205.227 366.074 203.905 364.393 203.73C363.835 203.672 363.272 203.694 362.71 203.694H346.338C345.536 203.694 344.73 203.642 343.988 204.018C342.83 204.604 342.357 205.701 342.314 206.937C342.181 210.72 342.314 214.533 342.314 218.318V250.673C342.314 253.247 346.314 253.251 346.314 250.673L346.315 250.675Z" fill="#211715"/>
<path d="M202.722 213.501V263.927C202.722 266.501 206.722 266.505 206.722 263.927V213.501C206.722 210.927 202.722 210.923 202.722 213.501Z" fill="#211715"/>
</g>
<g clip-path="url(#clip3_13_184)">
<path d="M684.929 118.499V115.056C684.929 112.847 683.138 111.056 680.929 111.056H660.929C658.72 111.056 656.929 112.847 656.929 115.056V264.832C666.262 264.832 675.596 264.832 684.929 264.832V118.499Z" fill="white"/>
<path d="M621.739 132.855C601.954 141.644 576.063 153.151 561.069 159.813C559.746 160.401 558.263 159.433 558.263 157.986C558.263 149.888 558.263 139.201 558.266 130.064C558.266 128.617 556.783 127.653 555.46 128.24C535.396 137.15 502.21 151.899 484.399 159.813C483.076 160.401 481.593 159.43 481.593 157.983V130.071C481.593 128.624 480.109 127.653 478.787 128.241C458.107 137.429 423.46 152.824 406.12 160.533C405.398 160.854 404.934 161.57 404.934 162.36V264.831C481.601 264.831 558.267 264.831 634.934 264.831C634.934 233.801 634.934 159.332 634.938 130.064C634.938 128.617 633.455 127.653 632.132 128.241C628.959 129.65 625.458 131.205 621.741 132.856L621.739 132.855Z" fill="white"/>
<path d="M564.637 198.559H534.606C534.054 198.559 533.606 199.007 533.606 199.559V229.03C533.606 229.582 534.054 230.03 534.606 230.03H564.637C565.189 230.03 565.637 229.582 565.637 229.03V199.559C565.637 199.007 565.189 198.559 564.637 198.559Z" fill="#673AB7"/>
<path d="M614.062 198.559H584.031C583.479 198.559 583.031 199.007 583.031 199.559V229.03C583.031 229.582 583.479 230.03 584.031 230.03H614.062C614.614 230.03 615.062 229.582 615.062 229.03V199.559C615.062 199.007 614.614 198.559 614.062 198.559Z" fill="#673AB7"/>
<path d="M686.929 265.056V115.682C686.929 113.714 686.391 111.812 684.809 110.492C682.501 108.566 679.201 109.056 676.398 109.056H665.041C662.119 109.056 658.802 108.585 656.575 110.93C654.549 113.064 654.93 116.043 654.93 118.732V265.056C654.93 267.63 658.93 267.634 658.93 265.056V116.143C658.93 115.551 658.846 114.81 659.084 114.26C659.546 113.19 660.571 113.055 661.583 113.055H676.818C678.503 113.055 682.485 112.312 682.915 114.71C683.192 116.256 682.93 118.065 682.93 119.622V265.055C682.93 267.629 686.93 267.633 686.93 265.055L686.929 265.056Z" fill="#211715"/>
<path d="M636.932 264.83C636.932 244.897 636.932 224.963 636.932 205.03C636.932 183.668 636.932 162.307 636.934 140.945C636.934 138.939 636.934 136.933 636.934 134.927C636.934 133.11 637.229 130.985 636.838 129.206C636.518 127.753 635.346 126.51 633.879 126.178C632.255 125.81 630.867 126.624 629.433 127.261C626.904 128.384 624.375 129.508 621.845 130.631C610.202 135.803 598.559 140.976 586.916 146.15C581.382 148.609 575.849 151.068 570.315 153.527C567.921 154.591 565.527 155.655 563.133 156.719C562.24 157.116 561.118 157.437 560.303 157.977C560.161 158.071 560.259 157.997 560.26 157.986C560.337 157.101 560.26 156.174 560.26 155.285C560.26 148.024 560.26 140.762 560.262 133.501C560.262 131.944 560.537 130.098 559.975 128.621C559.37 127.032 557.774 125.996 556.073 126.075C554.731 126.138 553.396 126.98 552.187 127.517C550.894 128.091 549.602 128.665 548.309 129.239C536.8 134.351 525.291 139.465 513.783 144.578C508.11 147.099 502.437 149.62 496.765 152.141C494.25 153.259 491.735 154.376 489.219 155.494C488.123 155.981 487.027 156.468 485.932 156.955C485.415 157.185 484.899 157.414 484.382 157.644C484.146 157.749 483.848 157.836 483.632 157.977C483.447 158.098 483.581 157.984 483.568 157.966C483.658 158.098 483.584 157.89 483.589 157.698C483.598 157.357 483.589 157.014 483.589 156.672V131.27C483.589 130.362 483.632 129.497 483.301 128.626C482.741 127.153 481.295 126.101 479.704 126.069C478.25 126.039 476.842 126.927 475.546 127.503C453.801 137.164 432.056 146.826 410.313 156.491C409.288 156.947 408.263 157.402 407.238 157.858C406.096 158.366 404.782 158.767 403.931 159.724C403.205 160.54 402.952 161.558 402.929 162.618C402.905 163.691 402.929 164.768 402.929 165.841V264.83C402.929 267.404 406.929 267.408 406.929 264.83V172.857C406.929 169.506 406.804 166.128 406.929 162.779C406.932 162.697 406.972 162.295 406.895 162.419C407.072 162.133 407.749 161.982 408.053 161.846C408.536 161.631 409.02 161.416 409.503 161.201C410.625 160.702 411.746 160.204 412.868 159.705C417.827 157.501 422.786 155.297 427.745 153.093C439.214 147.996 450.683 142.9 462.152 137.804C467.29 135.521 472.427 133.238 477.565 130.956C478.124 130.708 478.692 130.473 479.245 130.21C479.484 130.096 479.507 130.111 479.704 130.069C479.523 130.108 479.579 130.092 479.561 129.972C479.586 130.142 479.583 130.302 479.589 130.477C479.619 131.438 479.589 132.405 479.589 133.366V155.175C479.589 156.033 479.569 156.893 479.589 157.751C479.64 159.946 481.13 161.936 483.474 161.984C484.788 162.011 485.998 161.276 487.167 160.757C488.336 160.238 489.504 159.718 490.673 159.199C493.06 158.138 495.447 157.078 497.834 156.017C509.309 150.918 520.783 145.819 532.258 140.72C537.763 138.274 543.269 135.828 548.775 133.382C549.998 132.839 551.222 132.295 552.445 131.752C553.636 131.223 555.103 130.807 556.188 130.09C556.385 129.96 556.261 130.072 556.261 130.064C556.178 130.901 556.261 131.789 556.261 132.631C556.261 134.395 556.261 136.16 556.26 137.924C556.26 141.628 556.26 145.331 556.259 149.035C556.259 150.717 556.259 152.399 556.259 154.081C556.259 155.679 555.974 157.602 556.43 159.149C556.881 160.68 558.276 161.792 559.847 161.946C561.208 162.08 562.372 161.409 563.58 160.872C565.895 159.843 568.209 158.815 570.524 157.786C581.782 152.783 593.04 147.78 604.298 142.778C609.956 140.264 615.613 137.751 621.271 135.237C623.786 134.12 626.302 133.002 628.817 131.885C629.978 131.369 631.139 130.854 632.3 130.338C632.519 130.241 632.748 130.155 632.965 130.06C633.106 129.998 632.866 129.977 632.953 130.083C632.833 129.936 632.917 130.04 632.932 130.26C632.95 130.524 632.932 130.797 632.932 131.062C632.93 150.459 632.929 169.856 632.929 189.253C632.929 210.649 632.929 232.044 632.929 253.44C632.929 257.236 632.929 261.033 632.929 264.829C632.929 267.403 636.929 267.407 636.929 264.829L636.932 264.83Z" fill="#211715"/>
<path d="M427.738 264.765V197.008C427.738 196.786 427.738 196.564 427.738 196.343C427.738 196.143 427.789 196.216 427.742 196.224C428.105 196.16 428.538 196.224 428.905 196.224H464.368C474.396 196.224 484.424 196.224 494.451 196.224H504.72C505.979 196.224 507.492 195.991 508.736 196.224C508.741 196.224 508.721 196.138 508.737 196.368C508.753 196.598 508.737 196.837 508.737 197.069V264.766C508.737 267.34 512.737 267.344 512.737 264.766V216.865C512.737 210.128 512.82 203.385 512.737 196.648C512.712 194.64 511.696 192.792 509.593 192.322C509.014 192.193 508.408 192.224 507.82 192.224H472.231C462.032 192.224 451.832 192.224 441.633 192.224H431.411C429.937 192.224 428.014 191.934 426.573 192.397C423.357 193.43 423.737 196.643 423.737 199.279V264.765C423.737 267.339 427.738 267.343 427.738 264.765Z" fill="#211715"/>
<path d="M384.932 266.831H704.932C707.506 266.831 707.51 262.831 704.932 262.831H384.932C382.358 262.831 382.354 266.831 384.932 266.831Z" fill="#211715"/>
<path d="M535.606 229.03V200.603C535.606 200.347 535.712 199.824 535.606 199.584C535.611 199.595 534.136 200.403 534.72 200.559C534.867 200.598 535.078 200.559 535.229 200.559H562.893C563.318 200.559 564.014 200.696 564.421 200.559C564.73 200.455 565.113 201.038 564.135 200.06C563.237 199.162 563.732 199.462 563.636 199.805C563.51 200.26 563.636 200.938 563.636 201.407V224.093C563.636 225.587 563.449 227.218 563.636 228.703C563.752 229.622 564.791 228.107 564.505 228.03C564.093 227.92 563.499 228.03 563.076 228.03H535.351C535.183 228.03 534.987 228.001 534.821 228.03C534.167 228.144 535.345 227.325 535.534 228.498C535.362 227.431 534.034 226.837 533.074 227.101C531.939 227.413 531.504 228.491 531.677 229.561C532.084 232.083 534.479 232.029 536.411 232.029H560.357C561.744 232.029 563.154 232.103 564.54 232.029C566.283 231.936 567.524 230.783 567.637 229.018C567.66 228.66 567.637 228.293 567.637 227.934V212.797C567.637 208.463 567.816 204.087 567.637 199.756C567.543 197.482 565.877 196.558 563.849 196.558H535.23C533.16 196.558 531.665 197.689 531.606 199.885C531.353 209.301 531.606 218.756 531.606 228.176V229.028C531.606 231.602 535.606 231.606 535.606 229.028V229.03Z" fill="#211715"/>
<path d="M585.031 229.03V200.603C585.031 200.347 585.137 199.824 585.031 199.584C585.036 199.595 583.561 200.403 584.145 200.559C584.292 200.598 584.503 200.559 584.654 200.559H612.318C612.743 200.559 613.439 200.696 613.846 200.559C614.155 200.455 614.538 201.038 613.56 200.06C612.662 199.162 613.157 199.462 613.061 199.805C612.935 200.26 613.061 200.938 613.061 201.407V224.093C613.061 225.587 612.874 227.218 613.061 228.703C613.177 229.622 614.216 228.107 613.93 228.03C613.518 227.92 612.924 228.03 612.501 228.03H584.776C584.608 228.03 584.412 228.001 584.246 228.03C583.592 228.144 584.77 227.325 584.959 228.498C584.787 227.431 583.459 226.837 582.499 227.101C581.364 227.413 580.929 228.491 581.102 229.561C581.509 232.083 583.904 232.029 585.836 232.029H609.782C611.169 232.029 612.579 232.103 613.965 232.029C615.708 231.936 616.949 230.783 617.062 229.018C617.085 228.66 617.062 228.293 617.062 227.934V212.797C617.062 208.463 617.241 204.087 617.062 199.756C616.968 197.482 615.302 196.558 613.274 196.558H584.655C582.585 196.558 581.09 197.689 581.031 199.885C580.778 209.301 581.031 218.756 581.031 228.176V229.028C581.031 231.602 585.031 231.606 585.031 229.028V229.03Z" fill="#211715"/>
<path d="M425.738 213.879H510.738C513.312 213.879 513.316 209.879 510.738 209.879H425.738C423.164 209.879 423.16 213.879 425.738 213.879Z" fill="#211715"/>
<path d="M425.738 231.534H510.738C513.312 231.534 513.316 227.534 510.738 227.534H425.738C423.164 227.534 423.16 231.534 425.738 231.534Z" fill="#211715"/>
<path d="M425.738 249.19H510.738C513.312 249.19 513.316 245.19 510.738 245.19H425.738C423.164 245.19 423.16 249.19 425.738 249.19Z" fill="#211715"/>
</g>
<g clip-path="url(#clip4_13_184)">
<path d="M650.042 141.976V264.837C743.375 264.836 836.709 264.835 930.042 264.835C930.042 217.697 930.042 178.582 930.042 132.068C930.042 131.518 929.592 131.063 929.042 131.063H830.048H750.048H651.042C650.49 131.063 650.042 131.511 650.042 132.063V141.976Z" fill="white"/>
<path d="M750.048 264.832V83.002C750.048 82.45 750.496 82.002 751.048 82.002H829.048C829.6 82.002 830.048 82.45 830.048 83.002V264.832" fill="white"/>
<path d="M644.209 264.476V250.008H657.009V264.476" fill="white"/>
<path d="M654.587 205.165C652.416 203.495 649.419 203.496 647.248 205.166C642.17 209.075 638.254 214.445 635.862 220.397C635.134 222.209 634.54 224.081 634.186 226.002C633.849 227.83 633.731 229.69 633.613 231.546C633.406 234.816 633.216 238.207 634.396 241.264C635.419 243.913 637.463 246.142 639.989 247.437C642.516 248.732 648.087 249.418 650.918 249.418C653.053 249.418 659.32 248.732 661.847 247.437C664.374 246.142 666.418 243.912 667.44 241.264C668.62 238.207 668.431 234.816 668.223 231.546C668.105 229.691 667.987 227.83 667.65 226.002C667.296 224.081 666.703 222.209 665.974 220.397C663.582 214.444 659.664 209.073 654.583 205.165H654.587Z" fill="white"/>
<path d="M923.209 264.476V250.008H936.009V264.476" fill="white"/>
<path d="M933.587 205.165C931.416 203.495 928.419 203.496 926.248 205.166C921.17 209.075 917.254 214.445 914.862 220.397C914.134 222.209 913.54 224.081 913.186 226.002C912.849 227.83 912.731 229.69 912.613 231.546C912.406 234.816 912.216 238.207 913.396 241.264C914.419 243.913 916.463 246.142 918.989 247.437C921.516 248.732 927.087 249.418 929.918 249.418C932.053 249.418 938.32 248.732 940.847 247.437C943.374 246.142 945.418 243.912 946.44 241.264C947.62 238.207 947.431 234.816 947.223 231.546C947.105 229.691 946.987 227.83 946.65 226.002C946.296 224.081 945.703 222.209 944.974 220.397C942.582 214.444 938.664 209.073 933.583 205.165H933.587Z" fill="white"/>
<path d="M820.048 217.836C820.048 216.428 820.048 215.02 820.048 213.612H760.048V264.835C772.149 264.835 795.667 264.835 820.048 264.835C820.048 249.174 820.048 233.502 820.048 217.836Z" fill="#FF9800"/>
<path d="M864.052 219.83C864.052 218.177 864.052 216.505 864.054 214.833C857.696 214.833 844.505 214.833 830.049 214.833V246.042C838.379 246.042 850.974 246.042 864.049 246.039C864.049 246.039 864.048 233.601 864.052 219.83Z" fill="#FF9800"/>
<path d="M716.039 219.83C716.039 218.177 716.039 216.505 716.037 214.833C722.395 214.833 735.586 214.833 750.042 214.833V246.042C741.712 246.042 729.117 246.042 716.042 246.039C716.042 246.039 716.043 233.601 716.039 219.83Z" fill="#FF9800"/>
<path d="M716.039 157.83C716.039 156.177 716.039 154.505 716.037 152.833C722.395 152.833 735.586 152.833 750.042 152.833V184.042C741.712 184.042 729.117 184.042 716.042 184.039C716.042 184.039 716.043 171.601 716.039 157.83Z" fill="#FF9800"/>
<path d="M864.052 157.83C864.052 156.177 864.052 154.505 864.054 152.833C857.696 152.833 844.505 152.833 830.049 152.833V184.042C838.379 184.042 850.974 184.042 864.049 184.039C864.049 184.039 864.048 171.601 864.052 157.83Z" fill="#FF9800"/>
<path d="M916.041 157.83C916.041 156.177 916.041 154.505 916.043 152.833C909.685 152.833 896.494 152.833 882.038 152.833V184.042C890.368 184.042 902.963 184.042 916.038 184.039C916.038 184.039 916.038 171.601 916.042 157.83H916.041Z" fill="#FF9800"/>
<path d="M664.049 157.83C664.049 156.177 664.049 154.505 664.047 152.833C670.405 152.833 683.596 152.833 698.052 152.833V184.042C689.722 184.042 677.127 184.042 664.052 184.039C664.052 184.039 664.053 171.601 664.049 157.83Z" fill="#FF9800"/>
<path d="M799.048 144.043H781.048C780.496 144.043 780.048 144.491 780.048 145.043V183.042C780.048 183.594 780.501 184.042 781.053 184.042C788.398 184.042 791.974 184.043 799.043 184.043C799.595 184.043 800.047 183.599 800.047 183.046C800.047 177.529 800.047 151.274 800.048 145.037C800.048 144.485 799.6 144.043 799.048 144.043Z" fill="#FF9800"/>
<path d="M664.048 214.832C664.048 215.335 664.048 215.832 664.048 216.334C664.769 217.65 665.419 219.006 665.978 220.397C666.706 222.209 667.3 224.081 667.654 226.002C667.991 227.83 668.109 229.69 668.227 231.546C668.434 234.816 668.624 238.207 667.444 241.264C666.741 243.085 665.547 244.699 664.054 245.956V246.038C677.129 246.04 689.724 246.041 698.054 246.041V214.832H664.048Z" fill="#FF9800"/>
<path d="M913.398 241.265C912.218 238.208 912.408 234.817 912.615 231.547C912.733 229.692 912.851 227.831 913.188 226.003C913.542 224.082 914.135 222.21 914.864 220.398C915.22 219.512 915.621 218.644 916.043 217.787C916.043 216.803 916.043 215.822 916.043 214.833H882.038V246.042C890.368 246.042 902.963 246.042 916.038 246.039V245.269C914.897 244.13 913.979 242.769 913.398 241.265Z" fill="#FF9800"/>
<path d="M849.048 246.039V214.836C849.048 212.262 845.048 212.258 845.048 214.836V246.039C845.048 248.613 849.048 248.617 849.048 246.039Z" fill="#211715"/>
<path d="M866.048 246.039V214.836C866.048 212.262 862.048 212.258 862.048 214.836V246.039C862.048 248.613 866.048 248.617 866.048 246.039Z" fill="#211715"/>
<path d="M901.038 246.039V214.836C901.038 212.262 897.038 212.258 897.038 214.836V246.039C897.038 248.613 901.038 248.617 901.038 246.039Z" fill="#211715"/>
<path d="M884.038 246.039V214.836C884.038 212.262 880.038 212.258 880.038 214.836V246.039C880.038 248.613 884.038 248.617 884.038 246.039Z" fill="#211715"/>
<path d="M918.042 217.76V214.84C918.042 214.327 917.819 213.788 917.456 213.426C917.109 213.079 916.54 212.818 916.042 212.84C915.525 212.863 914.988 213.033 914.628 213.426C914.268 213.819 914.042 214.298 914.042 214.84V217.76C914.042 218.273 914.265 218.812 914.628 219.174C914.975 219.521 915.544 219.782 916.042 219.76C916.559 219.737 917.096 219.567 917.456 219.174C917.816 218.781 918.042 218.302 918.042 217.76Z" fill="#211715"/>
<path d="M918.042 246.04V245.29C918.052 245.015 917.995 244.758 917.87 244.519C917.789 244.271 917.651 244.056 917.456 243.875C917.275 243.68 917.06 243.542 916.812 243.461C916.574 243.336 916.317 243.278 916.041 243.289L915.509 243.36C915.17 243.455 914.876 243.626 914.626 243.874L914.313 244.279C914.132 244.591 914.041 244.927 914.04 245.288V246.038C914.03 246.313 914.087 246.57 914.212 246.809C914.293 247.057 914.431 247.272 914.626 247.453C914.807 247.648 915.022 247.786 915.27 247.867C915.508 247.992 915.765 248.05 916.041 248.039L916.573 247.968C916.912 247.873 917.206 247.702 917.456 247.454L917.769 247.049C917.95 246.737 918.041 246.401 918.042 246.04Z" fill="#211715"/>
<path d="M849.048 184.039V152.836C849.048 150.262 845.048 150.258 845.048 152.836V184.039C845.048 186.613 849.048 186.617 849.048 184.039Z" fill="#211715"/>
<path d="M832.048 184.039V152.836C832.048 150.262 828.048 150.258 828.048 152.836V184.039C828.048 186.613 832.048 186.617 832.048 184.039Z" fill="#211715"/>
<path d="M866.048 184.039V152.836C866.048 150.262 862.048 150.258 862.048 152.836V184.039C862.048 186.613 866.048 186.617 866.048 184.039Z" fill="#211715"/>
<path d="M901.038 184.039V152.836C901.038 150.262 897.038 150.258 897.038 152.836V184.039C897.038 186.613 901.038 186.617 901.038 184.039Z" fill="#211715"/>
<path d="M884.038 184.039V152.836C884.038 150.262 880.038 150.258 880.038 152.836V184.039C880.038 186.613 884.038 186.617 884.038 184.039Z" fill="#211715"/>
<path d="M918.038 184.039V152.836C918.038 150.262 914.038 150.258 914.038 152.836V184.039C914.038 186.613 918.038 186.617 918.038 184.039Z" fill="#211715"/>
<path d="M752.052 201.61V85.869C752.052 85.036 752.172 84.102 752.052 83.276C751.911 82.303 752.75 84.674 751.069 84C751.252 84.073 751.608 84 751.801 84H828.357C828.528 84 828.882 84.07 829.046 84C827.333 84.735 828.198 82.243 828.053 83.333C827.938 84.201 828.053 85.165 828.053 86.039V201.61C828.053 204.184 832.053 204.188 832.053 201.61V85.233C832.053 84.52 832.091 83.796 832.053 83.084C831.939 80.944 830.315 80 828.409 80H751.6C749.695 80 748.153 81.04 748.053 83.117C747.941 85.434 748.053 87.785 748.053 90.104V201.61C748.053 204.184 752.052 204.188 752.052 201.61Z" fill="#211715"/>
<path d="M832.052 264.83V213.61C832.052 211.036 828.052 211.032 828.052 213.61V264.83C828.052 267.404 832.052 267.408 832.052 264.83Z" fill="#211715"/>
<path d="M752.052 264.83V213.61C752.052 211.036 748.052 211.032 748.052 213.61V264.83C748.052 267.404 752.052 267.408 752.052 264.83Z" fill="#211715"/>
<path d="M750.052 129.06H652.172C651.84 129.06 651.503 129.045 651.171 129.06C649.423 129.141 648.157 130.292 648.042 132.066C647.958 133.359 648.042 134.685 648.042 135.98V203.99C648.042 206.564 652.042 206.568 652.042 203.99V133.543C652.042 133.287 652.201 132.342 652.042 132.127C652.341 132.533 650.414 132.873 651.354 133.06C652.404 133.268 653.713 133.06 654.779 133.06H738.861C742.427 133.06 745.997 133.111 749.562 133.06C749.725 133.058 749.889 133.06 750.052 133.06C752.626 133.06 752.63 129.06 750.052 129.06Z" fill="#211715"/>
<path d="M932.042 203.93V133.068C932.042 131.684 931.926 130.347 930.641 129.53C930.145 129.215 929.59 129.095 929.012 129.06C928.866 129.051 928.717 129.062 928.57 129.06C927.755 129.048 926.939 129.06 926.124 129.06H848.722C842.598 129.06 836.44 128.87 830.318 129.06C830.229 129.063 830.14 129.06 830.051 129.06C827.477 129.06 827.473 133.06 830.051 133.06H926.977C927.565 133.06 928.274 133.169 928.855 133.06C928.902 133.051 928.965 133.076 929.011 133.06C929.019 133.057 929.031 133.063 929.039 133.06H929.04C928.299 132.325 927.966 132.245 928.041 132.819C927.889 133.191 928.041 133.904 928.041 134.313V203.931C928.041 206.505 932.041 206.509 932.041 203.931L932.042 203.93Z" fill="#211715"/>
<path d="M762.048 264.832V213.612C762.048 211.038 758.048 211.034 758.048 213.612V264.832C758.048 267.406 762.048 267.41 762.048 264.832Z" fill="#211715"/>
<path d="M822.048 264.832V213.612C822.048 211.038 818.048 211.034 818.048 213.612V264.832C818.048 267.406 822.048 267.41 822.048 264.832Z" fill="#211715"/>
<path d="M793.016 109.884V100.504C793.016 99.458 792.096 98.456 791.016 98.504C789.936 98.552 789.016 99.383 789.016 100.504V109.884C789.016 110.93 789.936 111.932 791.016 111.884C792.096 111.836 793.016 111.005 793.016 109.884Z" fill="#211715"/>
<path d="M785.43 111.884C787.292 111.884 789.154 111.884 791.016 111.884C792.062 111.884 793.064 110.964 793.016 109.884C792.968 108.804 792.137 107.884 791.016 107.884C789.154 107.884 787.292 107.884 785.43 107.884C784.384 107.884 783.382 108.804 783.43 109.884C783.478 110.964 784.309 111.884 785.43 111.884Z" fill="#211715"/>
<path d="M830.048 186.042H930.048C932.622 186.042 932.626 182.042 930.048 182.042H830.048C827.474 182.042 827.47 186.042 830.048 186.042Z" fill="#211715"/>
<path d="M830.048 154.832H929.778C932.352 154.832 932.356 150.832 929.778 150.832H830.048C827.474 150.832 827.47 154.832 830.048 154.832Z" fill="#211715"/>
<path d="M916.872 244.04H830.052C827.478 244.04 827.474 248.04 830.052 248.04H916.872C919.446 248.04 919.45 244.04 916.872 244.04Z" fill="#211715"/>
<path d="M830.052 216.83H917.662C920.236 216.83 920.24 212.83 917.662 212.83H830.052C827.478 212.83 827.474 216.83 830.052 216.83Z" fill="#211715"/>
<path d="M735.043 246.039V214.836C735.043 212.262 731.043 212.258 731.043 214.836V246.039C731.043 248.613 735.043 248.617 735.043 246.039Z" fill="#211715"/>
<path d="M718.043 246.039V214.836C718.043 212.262 714.043 212.258 714.043 214.836V246.039C714.043 248.613 718.043 248.617 718.043 246.039Z" fill="#211715"/>
<path d="M683.053 246.039V214.836C683.053 212.262 679.053 212.258 679.053 214.836V246.039C679.053 248.613 683.053 248.617 683.053 246.039Z" fill="#211715"/>
<path d="M700.053 246.039V214.836C700.053 212.262 696.053 212.258 696.053 214.836V246.039C696.053 248.613 700.053 248.617 700.053 246.039Z" fill="#211715"/>
<path d="M735.043 184.039V152.836C735.043 150.262 731.043 150.258 731.043 152.836V184.039C731.043 186.613 735.043 186.617 735.043 184.039Z" fill="#211715"/>
<path d="M718.043 184.039V152.836C718.043 150.262 714.043 150.258 714.043 152.836V184.039C714.043 186.613 718.043 186.617 718.043 184.039Z" fill="#211715"/>
<path d="M683.053 184.039V152.836C683.053 150.262 679.053 150.258 679.053 152.836V184.039C679.053 186.613 683.053 186.617 683.053 184.039Z" fill="#211715"/>
<path d="M700.053 184.039V152.836C700.053 150.262 696.053 150.258 696.053 152.836V184.039C696.053 186.613 700.053 186.617 700.053 184.039Z" fill="#211715"/>
<path d="M666.053 184.039V152.836C666.053 150.262 662.053 150.258 662.053 152.836V184.039C662.053 186.613 666.053 186.617 666.053 184.039Z" fill="#211715"/>
<path d="M666.052 216.33V214.84C666.062 214.565 666.005 214.308 665.88 214.069C665.799 213.821 665.661 213.606 665.466 213.425C665.285 213.23 665.07 213.092 664.822 213.011C664.584 212.886 664.327 212.828 664.051 212.839L663.519 212.91C663.18 213.005 662.886 213.176 662.636 213.424L662.323 213.829C662.142 214.141 662.051 214.477 662.05 214.838V216.328C662.04 216.603 662.097 216.86 662.222 217.099C662.303 217.347 662.441 217.562 662.636 217.743C662.817 217.938 663.032 218.076 663.28 218.157C663.518 218.282 663.775 218.34 664.051 218.329L664.583 218.258C664.922 218.163 665.216 217.992 665.466 217.744L665.779 217.339C665.96 217.027 666.051 216.691 666.052 216.33Z" fill="#211715"/>
<path d="M666.052 246.04V245.98C666.062 245.705 666.005 245.448 665.88 245.209C665.799 244.961 665.661 244.746 665.466 244.565C665.285 244.37 665.07 244.232 664.822 244.151C664.584 244.026 664.327 243.968 664.051 243.979L663.519 244.05C663.18 244.145 662.886 244.316 662.636 244.564L662.323 244.969C662.142 245.281 662.051 245.617 662.05 245.978V246.038C662.04 246.313 662.097 246.57 662.222 246.809C662.303 247.057 662.441 247.272 662.636 247.453C662.817 247.648 663.032 247.786 663.28 247.867C663.518 247.992 663.775 248.05 664.051 248.039L664.583 247.968C664.922 247.873 665.216 247.702 665.466 247.454L665.779 247.049C665.96 246.737 666.051 246.401 666.052 246.04Z" fill="#211715"/>
<path d="M750.043 182.042H650.043C647.469 182.042 647.465 186.042 650.043 186.042H750.043C752.617 186.042 752.621 182.042 750.043 182.042Z" fill="#211715"/>
<path d="M750.043 150.832H650.313C647.739 150.832 647.735 154.832 650.313 154.832H750.043C752.617 154.832 752.621 150.832 750.043 150.832Z" fill="#211715"/>
<path d="M663.972 248.04H750.042C752.616 248.04 752.62 244.04 750.042 244.04H663.972C661.398 244.04 661.394 248.04 663.972 248.04Z" fill="#211715"/>
<path d="M663.192 216.83H750.052C752.626 216.83 752.63 212.83 750.052 212.83H663.192C660.618 212.83 660.614 216.83 663.192 216.83Z" fill="#211715"/>
<path d="M655.597 203.438C653.729 202.093 651.349 201.614 649.102 202.124C646.824 202.641 645.003 204.316 643.345 205.871C639.896 209.105 637.058 213.053 635.039 217.324C633.973 219.58 633.056 221.934 632.49 224.368C631.893 226.939 631.731 229.589 631.574 232.216C631.274 237.224 631.632 242.196 635.09 246.127C637.955 249.384 641.91 250.458 646.048 251.022C649.531 251.496 652.803 251.417 656.276 250.916C660.201 250.349 663.861 249.307 666.626 246.273C670.14 242.416 670.572 237.429 670.283 232.441C670.114 229.515 669.934 226.559 669.192 223.712C668.501 221.057 667.433 218.47 666.167 216.038C663.696 211.292 660.226 207.041 656.003 203.75C655.152 203.087 654.005 202.92 653.175 203.75C652.484 204.441 652.318 205.911 653.175 206.578C659.575 211.564 664.611 219.104 665.843 227.22C666.171 229.381 666.268 231.605 666.351 233.788C666.435 235.983 666.405 238.217 665.669 240.312C664.528 243.563 661.796 245.647 658.618 246.419C655.971 247.062 653.141 247.476 650.411 247.41C647.427 247.338 643.984 247.035 641.226 245.818C637.588 244.214 635.713 240.525 635.499 236.706C635.257 232.379 635.589 227.619 636.88 223.473C638.235 219.123 640.535 214.972 643.494 211.507C644.933 209.822 646.543 208.138 648.341 206.829C650.031 205.599 651.908 205.686 653.579 206.889C654.456 207.52 655.807 207.041 656.315 206.171C656.904 205.163 656.477 204.068 655.597 203.435V203.438Z" fill="#211715"/>
<path d="M655.009 250.008V264.476C655.009 265.557 655.928 266.476 657.009 266.476C658.09 266.476 659.009 265.561 659.009 264.476V250.008C659.009 248.927 658.09 248.008 657.009 248.008C655.928 248.008 655.009 248.923 655.009 250.008Z" fill="#211715"/>
<path d="M642.209 250.008V264.476C642.209 265.557 643.128 266.476 644.209 266.476C645.29 266.476 646.209 265.561 646.209 264.476V250.008C646.209 248.927 645.29 248.008 644.209 248.008C643.128 248.008 642.209 248.923 642.209 250.008Z" fill="#211715"/>
<path d="M934.597 203.438C932.729 202.093 930.349 201.614 928.102 202.124C925.824 202.641 924.003 204.316 922.345 205.871C918.896 209.105 916.058 213.053 914.039 217.324C912.973 219.58 912.056 221.934 911.49 224.368C910.893 226.939 910.731 229.589 910.574 232.216C910.274 237.224 910.632 242.196 914.09 246.127C916.955 249.384 920.91 250.458 925.048 251.022C928.531 251.496 931.803 251.417 935.276 250.916C939.201 250.349 942.861 249.307 945.626 246.273C949.14 242.416 949.572 237.429 949.283 232.441C949.114 229.515 948.934 226.559 948.192 223.712C947.501 221.057 946.433 218.47 945.167 216.038C942.696 211.292 939.226 207.041 935.003 203.75C934.152 203.087 933.005 202.92 932.175 203.75C931.484 204.441 931.318 205.911 932.175 206.578C938.575 211.564 943.611 219.104 944.843 227.22C945.171 229.381 945.268 231.605 945.351 233.788C945.435 235.983 945.405 238.217 944.669 240.312C943.528 243.563 940.796 245.647 937.618 246.419C934.971 247.062 932.141 247.476 929.411 247.41C926.427 247.338 922.984 247.035 920.226 245.818C916.588 244.214 914.713 240.525 914.499 236.706C914.257 232.379 914.589 227.619 915.88 223.473C917.235 219.123 919.535 214.972 922.494 211.507C923.933 209.822 925.543 208.138 927.341 206.829C929.031 205.599 930.908 205.686 932.579 206.889C933.456 207.52 934.807 207.041 935.315 206.171C935.904 205.163 935.477 204.068 934.597 203.435V203.438Z" fill="#211715"/>
<path d="M934.009 250.008V264.476C934.009 265.557 934.928 266.476 936.009 266.476C937.09 266.476 938.009 265.561 938.009 264.476V250.008C938.009 248.927 937.09 248.008 936.009 248.008C934.928 248.008 934.009 248.923 934.009 250.008Z" fill="#211715"/>
<path d="M921.209 250.008V264.476C921.209 265.557 922.128 266.476 923.209 266.476C924.29 266.476 925.209 265.561 925.209 264.476V250.008C925.209 248.927 924.29 248.008 923.209 248.008C922.128 248.008 921.209 248.923 921.209 250.008Z" fill="#211715"/>
<path d="M630.932 266.835H950.932C953.506 266.835 953.51 262.835 950.932 262.835H630.932C628.358 262.835 628.354 266.835 630.932 266.835Z" fill="#211715"/>
<path d="M790.042 89.912C781.916 89.991 774.688 94.972 772.217 102.804C769.929 110.055 772.153 118.749 778.218 123.486C784.233 128.183 793.294 128.682 799.907 124.918C806.682 121.061 809.606 112.962 808.478 105.474C807.101 96.336 799.132 90 790.042 89.913C787.467 89.888 787.465 93.888 790.042 93.913C796.409 93.974 802.164 97.798 804.055 103.999C805.777 109.649 804.294 116.567 799.564 120.348C794.943 124.042 787.666 124.394 782.54 121.577C777.169 118.626 774.663 112.339 775.487 106.389C776.504 99.05 782.753 93.983 790.042 93.912C792.614 93.887 792.621 89.887 790.042 89.912Z" fill="#211715"/>
<path d="M799.048 142.043H789.299C787.249 142.043 785.199 142.043 783.15 142.043C781.71 142.043 780.052 141.813 778.936 142.93C778.022 143.844 778.049 144.961 778.049 146.125V175.942C778.049 178.271 777.923 180.639 778.049 182.965C778.265 186.957 783.09 186.043 785.871 186.043C789.446 186.043 793.021 186.043 796.596 186.043C798.585 186.043 801.227 186.325 801.925 183.894C802.144 183.131 802.048 182.236 802.048 181.449C802.048 179.434 802.048 177.418 802.048 175.403C802.048 165.452 802.048 155.501 802.049 145.55C802.049 143.949 801.325 142.394 799.581 142.115C798.516 141.945 797.429 142.389 797.121 143.512C796.859 144.464 797.445 145.801 798.518 145.972C798.134 145.911 798.236 144.768 798.05 145.415C798.011 145.551 798.05 145.769 798.05 145.907C798.05 146.258 798.05 146.61 798.05 146.961C798.05 147.828 798.05 148.695 798.05 149.561C798.05 151.837 798.05 154.114 798.05 156.39C798.05 161.557 798.05 166.724 798.05 171.891C798.05 174.129 798.05 176.367 798.05 178.605C798.05 178.93 797.907 182.908 798.05 182.939L798.315 182.491C798.704 182.127 798.716 181.978 798.352 182.043C798.232 181.976 797.818 182.043 797.677 182.043C797.247 182.043 796.818 182.043 796.388 182.043C795.465 182.043 794.542 182.043 793.62 182.043C792.044 182.043 790.468 182.043 788.892 182.043C787.199 182.043 785.505 182.043 783.812 182.043C783.368 182.043 782.923 182.043 782.479 182.043C782.539 182.043 781.551 182.019 781.542 182.043C781.537 182.056 782.06 183.035 782.053 183.037C782.063 183.033 782.048 182.917 782.053 182.905C782.273 182.368 782.053 181.265 782.053 180.695V147.721C782.053 147.008 782.252 145.968 782.053 145.279C781.833 144.515 781.4 146.279 781.11 146.044C781.262 146.166 781.994 146.044 782.186 146.044H787.222C790.926 146.044 794.63 146.044 798.334 146.044H799.054C801.628 146.044 801.632 142.044 799.054 142.044L799.048 142.043Z" fill="#211715"/>
<path d="M749.048 203.612H829.862C830.071 203.612 830.798 203.737 830.975 203.612C830.987 203.604 831.035 203.623 831.044 203.612C830.773 203.942 830.272 202.041 830.048 202.892C829.88 203.528 830.048 204.442 830.048 205.095V211.32C830.048 211.612 830.003 211.947 830.048 212.236C830.058 212.298 830.016 212.432 830.048 212.485C830.347 212.99 830.815 211.318 831.047 211.612C831.027 211.587 830.884 211.623 830.853 211.612C830.482 211.482 829.824 211.612 829.435 211.612H754.184C752.647 211.612 751.015 211.456 749.484 211.612C749.412 211.619 749.165 211.566 749.105 211.612C749.096 211.619 749.056 211.603 749.049 211.612C749.246 211.362 749.782 212.876 750.048 212.539C750.089 212.487 750.038 212.3 750.048 212.235C750.312 210.492 750.048 208.502 750.048 206.741V203.904C750.048 203.603 750.073 203.289 750.048 202.988C749.973 202.095 750.368 203.413 749.58 203.54C750.647 203.368 751.241 202.04 750.977 201.08C750.665 199.945 749.587 199.51 748.517 199.683C745.877 200.109 746.049 202.761 746.049 204.772V211.233C746.049 211.689 746.018 212.157 746.049 212.612C746.164 214.316 747.358 215.503 749.058 215.612C749.364 215.632 749.678 215.612 749.984 215.612H817.859C822.185 215.612 826.556 215.793 830.88 215.612C832.713 215.535 833.959 214.335 834.049 212.485C834.135 210.703 834.049 208.897 834.049 207.113C834.049 205.625 834.149 204.098 834.049 202.612C833.923 200.738 832.55 199.665 830.762 199.612C826.215 199.476 821.642 199.612 817.093 199.612H749.049C746.475 199.612 746.471 203.612 749.049 203.612H749.048Z" fill="#211715"/>
</g>
<g clip-path="url(#clip5_13_184)">
<path d="M962.098 264.79C1055.43 264.79 1128.77 264.79 1222.1 264.79C1222.1 214.111 1222.1 152.118 1222.1 102C1221.7 102 1117.36 102 1013.01 102V92H962.098V264.79Z" fill="white"/>
<path d="M1013.01 111.997H1222.1V221.567H1013.01V111.997Z" fill="white"/>
<path d="M980.326 126.267V240.487H962.098V126.267H980.326Z" fill="#03A9F4"/>
<path d="M1222.1 231.567V264.787H1174.83V231.567H1222.1Z" fill="#03A9F4"/>
<path d="M1164.83 231.567V264.787H1122.55V231.567H1164.83Z" fill="#03A9F4"/>
<path d="M1112.55 231.567V264.787H1070.28V231.567H1112.55Z" fill="#03A9F4"/>
<path d="M1060.28 231.567V264.787H1013.01V231.567H1060.28Z" fill="#03A9F4"/>
<path d="M1222.1 110H1013.01C1010.43 110 1010.43 114 1013.01 114H1222.1C1224.68 114 1224.68 110 1222.1 110Z" fill="#211715"/>
<path d="M962.098 266.79C979.62 266.79 997.142 266.79 1014.66 266.79C1031.34 266.79 1048.01 266.79 1064.68 266.79C1080.94 266.79 1097.2 266.79 1113.46 266.79C1129.98 266.79 1146.5 266.79 1163.01 266.79C1180.47 266.79 1197.92 266.79 1215.38 266.79C1217.62 266.79 1219.86 266.79 1222.1 266.79C1223.18 266.79 1224.1 265.874 1224.1 264.79C1224.1 243.703 1224.1 222.617 1224.1 201.53C1224.1 179.908 1224.1 158.286 1224.1 136.664C1224.1 125.109 1224.1 113.555 1224.1 102C1224.1 100.919 1223.19 100 1222.1 100C1218.32 100 1214.54 100 1210.76 100C1200.61 100 1190.45 100 1180.3 100C1165.32 100 1150.33 100 1135.35 100C1117.08 100 1098.82 100 1080.55 100C1060.55 100 1040.55 100 1020.55 100C1018.03 100 1015.52 100 1013.01 100L1015.01 102V92C1015.01 90.919 1014.09 90 1013.01 90H962.098C961.017 90 960.098 90.916 960.098 92V243.917C960.098 250.769 959.877 257.662 960.098 264.512C960.101 264.605 960.098 264.698 960.098 264.79C960.098 267.364 964.098 267.368 964.098 264.79V92L962.098 94H1013.01L1011.01 92V102C1011.01 103.081 1011.92 104 1013.01 104C1033.12 104 1053.23 104 1073.34 104C1091.9 104 1110.46 104 1129.03 104C1144.5 104 1159.97 104 1175.44 104C1186.28 104 1197.11 104 1207.94 104C1211.13 104 1214.31 104 1217.5 104C1218.93 104 1220.46 104.153 1221.89 104C1221.96 103.993 1222.03 104 1222.1 104L1220.1 102C1220.1 122.953 1220.1 143.906 1220.1 164.859C1220.1 186.518 1220.1 208.177 1220.1 229.836C1220.1 241.487 1220.1 253.138 1220.1 264.79L1222.1 262.79C1204.58 262.79 1187.06 262.79 1169.54 262.79C1152.86 262.79 1136.19 262.79 1119.52 262.79C1103.26 262.79 1087 262.79 1070.74 262.79C1054.22 262.79 1037.7 262.79 1021.19 262.79C1003.73 262.79 986.275 262.79 968.819 262.79C966.579 262.79 964.34 262.79 962.1 262.79C959.526 262.79 959.522 266.79 962.1 266.79H962.098Z" fill="#211715"/>
<path d="M1013.01 233.567H1222.1C1224.67 233.567 1224.68 229.567 1222.1 229.567H1013.01C1010.43 229.567 1010.43 233.567 1013.01 233.567Z" fill="#211715"/>
<path d="M1013.01 223.567H1222.1C1224.67 223.567 1224.68 219.567 1222.1 219.567H1013.01C1010.43 219.567 1010.43 223.567 1013.01 223.567Z" fill="#211715"/>
<path d="M1011.01 112.783V264.793C1011.01 267.367 1015.01 267.371 1015.01 264.793V112.783C1015.01 110.209 1011.01 110.205 1011.01 112.783Z" fill="#211715"/>
<path d="M1041.15 221.567V112.787C1041.15 110.213 1037.15 110.209 1037.15 112.787V221.567C1037.15 224.141 1041.15 224.145 1041.15 221.567Z" fill="#211715"/>
<path d="M1067.28 221.567V112.787C1067.28 110.213 1063.28 110.209 1063.28 112.787V221.567C1063.28 224.141 1067.28 224.145 1067.28 221.567Z" fill="#211715"/>
<path d="M1093.42 221.567V112.787C1093.42 110.213 1089.42 110.209 1089.42 112.787V221.567C1089.42 224.141 1093.42 224.145 1093.42 221.567Z" fill="#211715"/>
<path d="M1119.55 221.567V112.787C1119.55 110.213 1115.55 110.209 1115.55 112.787V221.567C1115.55 224.141 1119.55 224.145 1119.55 221.567Z" fill="#211715"/>
<path d="M1145.69 221.567V112.787C1145.69 110.213 1141.69 110.209 1141.69 112.787V221.567C1141.69 224.141 1145.69 224.145 1145.69 221.567Z" fill="#211715"/>
<path d="M1171.83 221.567V112.787C1171.83 110.213 1167.83 110.209 1167.83 112.787V221.567C1167.83 224.141 1171.83 224.145 1171.83 221.567Z" fill="#211715"/>
<path d="M1197.96 221.567V112.787C1197.96 110.213 1193.96 110.209 1193.96 112.787V221.567C1193.96 224.141 1197.96 224.145 1197.96 221.567Z" fill="#211715"/>
<path d="M1062.28 264.787V231.566C1062.28 228.992 1058.28 228.988 1058.28 231.566V264.787C1058.28 267.361 1062.28 267.365 1062.28 264.787Z" fill="#211715"/>
<path d="M1072.28 264.79V231.569C1072.28 228.995 1068.28 228.991 1068.28 231.569V264.79C1068.28 267.364 1072.28 267.368 1072.28 264.79Z" fill="#211715"/>
<path d="M1114.55 264.787V231.566C1114.55 228.992 1110.55 228.988 1110.55 231.566V264.787C1110.55 267.361 1114.55 267.365 1114.55 264.787Z" fill="#211715"/>
<path d="M1124.55 264.79V231.569C1124.55 228.995 1120.55 228.991 1120.55 231.569V264.79C1120.55 267.364 1124.55 267.368 1124.55 264.79Z" fill="#211715"/>
<path d="M1172.83 231.567V264.788C1172.83 267.362 1176.83 267.366 1176.83 264.788V231.567C1176.83 228.993 1172.83 228.989 1172.83 231.567Z" fill="#211715"/>
<path d="M1166.83 264.79V231.569C1166.83 228.995 1162.83 228.991 1162.83 231.569V264.79C1162.83 267.364 1166.83 267.368 1166.83 264.79Z" fill="#211715"/>
<path d="M982.329 240.489V126.267C982.329 125.186 981.413 124.267 980.329 124.267H962.098C961.017 124.267 960.098 125.183 960.098 126.267V240.489C960.098 241.57 961.014 242.489 962.098 242.489H980.328C982.902 242.489 982.906 238.489 980.328 238.489H962.098L964.098 240.489V126.267L962.098 128.267H980.328L978.328 126.267V240.489C978.328 243.063 982.328 243.067 982.328 240.489H982.329Z" fill="#211715"/>
</g>
<g clip-path="url(#clip6_13_184)">
<path d="M1507.99 172.798V264.808H1277.99V172.798H1507.99Z" fill="white"/>
<path d="M1239.74 178.2C1239.74 174.796 1239.74 171.391 1239.74 167.987H1227.99C1227.99 200.259 1227.99 232.532 1227.99 264.804C1231.96 264.804 1235.88 264.804 1239.74 264.804C1239.74 235.936 1239.74 207.068 1239.74 178.2Z" fill="white"/>
<path d="M1511 132.008C1485.21 132.008 1300.77 132.008 1274.98 132.008C1273.32 132.008 1271.99 133.351 1271.99 135.008V169.798C1271.99 171.455 1273.33 172.798 1274.99 172.798H1510.99C1512.65 172.798 1513.99 171.461 1513.99 169.804C1513.99 159.238 1513.99 141.927 1513.99 135.003C1513.99 133.346 1512.66 132.008 1511 132.008H1511Z" fill="white"/>
<path d="M1252.86 122.008H1214.88C1212.67 122.008 1210.88 123.799 1210.88 126.008V163.987C1210.88 166.196 1212.67 167.987 1214.88 167.987H1252.86C1255.06 167.987 1256.86 166.196 1256.86 163.987V126.008C1256.86 123.799 1255.06 122.008 1252.86 122.008Z" fill="white"/>
<path d="M1280.31 228.801H1277.99C1277.99 223.396 1277.99 216.6 1277.99 208.801H1342.91V228.801H1280.31Z" fill="#E91E63"/>
<path d="M1446.42 208.801C1445.23 208.801 1444.02 208.801 1442.81 208.801V228.801C1471.05 228.801 1495.02 228.801 1507.73 228.801H1507.99C1507.99 221.992 1507.99 215.351 1508 208.801C1495.9 208.801 1473.28 208.801 1446.42 208.801Z" fill="#E91E63"/>
<path d="M1275.99 172.798V264.798C1275.99 267.372 1279.99 267.376 1279.99 264.798V172.798C1279.99 170.224 1275.99 170.22 1275.99 172.798Z" fill="#211715"/>
<path d="M1527.56 262.804C1505.04 262.804 1482.51 262.804 1459.99 262.804C1439.94 262.804 1419.9 262.804 1399.85 262.804C1380.69 262.804 1361.54 262.804 1342.38 262.804C1322.53 262.804 1302.68 262.804 1282.83 262.804C1260.69 262.804 1238.56 262.804 1216.42 262.804C1213.47 262.804 1210.52 262.804 1207.56 262.804C1204.99 262.804 1204.98 266.804 1207.56 266.804C1230.09 266.804 1252.61 266.804 1275.14 266.804C1295.18 266.804 1315.23 266.804 1335.28 266.804C1354.43 266.804 1373.59 266.804 1392.74 266.804C1412.6 266.804 1432.45 266.804 1452.3 266.804C1474.43 266.804 1496.57 266.804 1518.7 266.804C1521.66 266.804 1524.61 266.804 1527.56 266.804C1530.14 266.804 1530.14 262.804 1527.56 262.804Z" fill="#211715"/>
<path d="M1505.99 172.798V264.808C1505.99 267.382 1509.99 267.386 1509.99 264.808V172.798C1509.99 170.224 1505.99 170.22 1505.99 172.798Z" fill="#211715"/>
<path d="M1511 130.008C1505.25 130.008 1499.5 130.008 1493.75 130.008C1484.11 130.008 1474.47 130.008 1464.83 130.008C1452.65 130.008 1440.46 130.008 1428.28 130.008C1414.9 130.008 1401.53 130.008 1388.15 130.008C1374.93 130.008 1361.72 130.008 1348.5 130.008C1336.77 130.008 1325.03 130.008 1313.29 130.008C1304.47 130.008 1295.66 130.008 1286.84 130.008C1283.92 130.008 1281 130.008 1278.09 130.008C1277.1 130.008 1276.11 129.979 1275.12 130.008C1272.04 130.098 1270.01 132.376 1269.99 135.395C1269.92 144.971 1269.99 154.55 1269.99 164.126V169.068C1269.99 171.611 1271.13 173.991 1273.82 174.657C1274.69 174.874 1275.67 174.798 1276.57 174.798H1289.13C1296.63 174.798 1304.13 174.798 1311.63 174.798C1321.59 174.798 1331.54 174.798 1341.5 174.798C1352.85 174.798 1364.21 174.798 1375.56 174.798C1387.39 174.798 1399.21 174.798 1411.04 174.798C1422.42 174.798 1433.79 174.798 1445.17 174.798C1455.02 174.798 1464.87 174.798 1474.72 174.798C1482.23 174.798 1489.73 174.798 1497.23 174.798C1501.33 174.798 1505.43 174.798 1509.53 174.798C1510.82 174.798 1512.02 174.858 1513.24 174.259C1515.32 173.237 1515.99 171.194 1515.99 169.03C1515.99 166.987 1515.99 164.944 1515.99 162.901C1515.99 158.449 1515.99 153.996 1515.99 149.544C1515.99 145.803 1515.99 142.063 1515.99 138.322C1515.99 136.843 1516.22 135.11 1515.81 133.676C1515.18 131.459 1513.24 130.128 1511 130.008C1508.43 129.87 1508.44 133.87 1511 134.008C1512.41 134.084 1511.99 136.075 1511.99 137.023C1511.99 138.641 1511.99 140.258 1511.99 141.876C1511.99 146.067 1511.99 150.259 1511.99 154.45C1511.99 158.773 1511.99 163.096 1511.99 167.419C1511.99 168.588 1512.5 170.68 1510.87 170.798C1508.19 170.992 1505.43 170.798 1502.75 170.798C1496.46 170.798 1490.18 170.798 1483.9 170.798C1474.96 170.798 1466.02 170.798 1457.07 170.798C1446.34 170.798 1435.6 170.798 1424.86 170.798C1413.28 170.798 1401.7 170.798 1390.12 170.798C1378.65 170.798 1367.19 170.798 1355.72 170.798C1345.24 170.798 1334.76 170.798 1324.28 170.798C1315.67 170.798 1307.05 170.798 1298.44 170.798C1292.66 170.798 1286.88 170.798 1281.1 170.798H1276.48C1275.92 170.798 1274.88 170.968 1274.4 170.611C1273.72 170.114 1273.99 168.564 1273.99 167.853V138.19C1273.99 137.162 1273.89 136.069 1273.99 135.046C1274.14 133.681 1275.73 134.008 1276.75 134.008C1277.91 134.008 1279.08 134.008 1280.24 134.008C1287.57 134.008 1294.9 134.008 1302.23 134.008C1312.8 134.008 1323.37 134.008 1333.94 134.008C1346.49 134.008 1359.04 134.008 1371.59 134.008C1384.87 134.008 1398.16 134.008 1411.44 134.008C1424.13 134.008 1436.82 134.008 1449.5 134.008C1460.26 134.008 1471.01 134.008 1481.77 134.008C1489.35 134.008 1496.94 134.008 1504.53 134.008C1506.68 134.008 1508.84 134.008 1511 134.008C1513.57 134.008 1513.58 130.008 1511 130.008Z" fill="#211715"/>
<path d="M1507.73 226.801H1442.81C1440.24 226.801 1440.23 230.801 1442.81 230.801H1507.73C1510.31 230.801 1510.31 226.801 1507.73 226.801Z" fill="#211715"/>
<path d="M1342.91 226.801H1277.99C1275.42 226.801 1275.41 230.801 1277.99 230.801H1342.91C1345.49 230.801 1345.49 226.801 1342.91 226.801Z" fill="#211715"/>
<path d="M1507.73 206.801H1442.81C1440.24 206.801 1440.23 210.801 1442.81 210.801H1507.73C1510.31 210.801 1510.31 206.801 1507.73 206.801Z" fill="#211715"/>
<path d="M1342.91 206.801H1277.99C1275.42 206.801 1275.41 210.801 1277.99 210.801H1342.91C1345.49 210.801 1345.49 206.801 1342.91 206.801Z" fill="#211715"/>
<path d="M1340.91 172.988V264.808C1340.91 267.382 1344.91 267.386 1344.91 264.808V172.988C1344.91 170.414 1340.91 170.41 1340.91 172.988Z" fill="#211715"/>
<path d="M1440.81 172.988V264.808C1440.81 267.382 1444.81 267.386 1444.81 264.808V172.988C1444.81 170.414 1440.81 170.41 1440.81 172.988Z" fill="#211715"/>
<path d="M1390.86 172.988V264.808C1390.86 267.382 1394.86 267.386 1394.86 264.808V172.988C1394.86 170.414 1390.86 170.41 1390.86 172.988Z" fill="#211715"/>
<path d="M1229.99 264.808V167.988C1229.99 165.414 1225.99 165.41 1225.99 167.988V264.808C1225.99 267.382 1229.99 267.386 1229.99 264.808Z" fill="#211715"/>
<path d="M1241.74 264.808V167.988C1241.74 165.414 1237.74 165.41 1237.74 167.988V264.808C1237.74 267.382 1241.74 267.386 1241.74 264.808Z" fill="#211715"/>
<path d="M1212.88 163.987V128.962C1212.88 127.649 1212.46 125.293 1213.68 124.396C1214.76 123.607 1217.04 124.008 1218.27 124.008H1249C1250.35 124.008 1252.01 123.742 1253.33 124.065C1255.29 124.544 1254.86 127.036 1254.86 128.549V159.136C1254.86 160.733 1254.94 162.357 1254.86 163.952C1254.73 166.186 1252.66 165.987 1251.06 165.987C1239.07 165.987 1227.07 166.14 1215.09 165.987C1213.89 165.972 1212.93 165.257 1212.88 163.987C1212.77 161.423 1208.77 161.409 1208.88 163.987C1209.02 167.339 1211.51 169.859 1214.88 169.987C1215.3 170.003 1215.72 169.987 1216.15 169.987H1247.29C1249.12 169.987 1250.95 170.044 1252.78 169.987C1255.29 169.909 1257.5 168.53 1258.44 166.151C1258.81 165.202 1258.85 164.236 1258.85 163.24V144.248C1258.85 138.27 1258.91 132.29 1258.85 126.312C1258.82 122.642 1256.15 120.038 1252.5 120.007C1250.32 119.99 1248.14 120.008 1245.96 120.008H1215.55C1211.92 120.008 1208.99 122.296 1208.88 126.086C1208.7 131.63 1208.88 137.208 1208.88 142.754V163.988C1208.88 166.562 1212.88 166.565 1212.88 163.987Z" fill="#211715"/>
</g>
</g>
<defs>
<clipPath id="clip0_13_184">
<rect width="1515" height="267" fill="white"/>
</clipPath>
<clipPath id="clip1_13_184">
<rect width="159.117" height="231.836" fill="white" transform="translate(0 35.5)"/>
</clipPath>
<clipPath id="clip2_13_184">
<rect width="234.182" height="156.908" fill="white" transform="translate(166.117 110.5)"/>
</clipPath>
<clipPath id="clip3_13_184">
<rect width="323.864" height="157.988" fill="white" transform="translate(383 109)"/>
</clipPath>
<clipPath id="clip4_13_184">
<rect width="323.864" height="186.835" fill="white" transform="translate(629 80)"/>
</clipPath>
<clipPath id="clip5_13_184">
<rect width="264.102" height="176.79" fill="white" transform="translate(960 90)"/>
</clipPath>
<clipPath id="clip6_13_184">
<rect width="323.864" height="146.805" fill="white" transform="translate(1205.63 120)"/>
</clipPath>
</defs>
</svg>
